<?xml version="1.0" encoding="UTF-8" standalone="no"?>
<!-- Created with Inkscape (http://www.inkscape.org/) -->

<svg
   xmlns:dc="http://purl.org/dc/elements/1.1/"
   xmlns:cc="http://creativecommons.org/ns#"
   xmlns:rdf="http://www.w3.org/1999/02/22-rdf-syntax-ns#"
   xmlns:svg="http://www.w3.org/2000/svg"
   xmlns="http://www.w3.org/2000/svg"
   xmlns:sodipodi="http://sodipodi.sourceforge.net/DTD/sodipodi-0.dtd"
   xmlns:inkscape="http://www.inkscape.org/namespaces/inkscape"
   width="500"
   height="330"
   viewBox="0 0 500.00001 329.99999"
   id="svg2"
   version="1.1"
   inkscape:version="0.91 r13725"
   sodipodi:docname="tradeoff.svg">
  <defs
     id="defs4" />
  <sodipodi:namedview
     id="base"
     pagecolor="#ffffff"
     bordercolor="#666666"
     borderopacity="1.0"
     inkscape:pageopacity="0.0"
     inkscape:pageshadow="2"
     inkscape:zoom="0.98994949"
     inkscape:cx="325.26387"
     inkscape:cy="84.706176"
     inkscape:document-units="px"
     inkscape:current-layer="layer1"
     showgrid="false"
     inkscape:window-width="1364"
     inkscape:window-height="752"
     inkscape:window-x="0"
     inkscape:window-y="14"
     inkscape:window-maximized="1"
     fit-margin-top="0"
     fit-margin-left="0"
     fit-margin-right="0"
     fit-margin-bottom="0"
     units="px" />
  <metadata
     id="metadata7">
    <rdf:RDF>
      <cc:Work
         rdf:about="">
        <dc:format>image/svg+xml</dc:format>
        <dc:type
           rdf:resource="http://purl.org/dc/dcmitype/StillImage" />
        <dc:title></dc:title>
      </cc:Work>
    </rdf:RDF>
  </metadata>
  <g
     inkscape:label="Layer 1"
     inkscape:groupmode="layer"
     id="layer1"
     transform="translate(-2.313671,5.5706547)">
    <path
       style="fill:#ff6600;fill-opacity:1;fill-rule:nonzero;stroke:none;stroke-width:1px;stroke-linecap:butt;stroke-linejoin:miter;stroke-opacity:1"
       id="path3336"
       d="m 255.32719,26.051414 c -8.78352,0.55772 -17.55055,1.36023 -26.31622,2.146 -7.38913,1.89912 -14.8568,3.33117 -22.39605,4.4837 -8.74429,1.41092 -17.37735,3.55759 -25.96033,5.76574 -8.60278,2.1901 -16.97634,5.10512 -25.65337,7.02837 -6.10454,1.26342 -12.31477,1.86633 -18.51353,2.44183 0,0 -7.94837,4.13932 -10.33445,7.71525 -2.84238,4.64881 -4.86878,9.78016 -6.57021,14.94305 -1.22394,5.12694 -2.55273,10.23011 -4.01474,15.29499 -1.23203,5.70282 -3.10037,11.229286 -4.67827,16.836276 -1.58537,6.05529 -3.59144,11.98228 -5.71437,17.86624 -1.75405,5.78536 -2.94974,11.71278 -4.65332,17.51771 -1.58056,5.37842 -2.28699,10.96768 -1.77731,16.55148 0.68714,5.27589 2.49888,10.1693 4.4141,15.08277 1.53665,4.48558 3.72779,8.72924 5.78729,12.99659 2.9252,6.31578 6.18393,12.46578 9.18822,18.744 3.40727,7.4379 8.2311,14.02678 12.75756,20.7994 5.097,8.75674 11.85944,16.10487 18.80867,23.37923 6.0132,7.2415 14.00371,11.76335 22.00414,16.39576 6.16337,2.83358 12.22249,6.17087 18.92718,7.5018 3.05424,0.66498 20.22646,-8.62691 22.33535,-5.51101 0.57706,0.85262 -10.70954,9.9297 -10.25593,10.85396 -22.30457,19.54982 -27.81107,25.03618 -49.62642,29.00867 -8.90703,1.87564 -17.91174,3.42211 -26.77887,5.50771 -27.09926,5.98214 -27.00665,12.8463 16.01169,-23.06428 6.94207,-0.36237 13.56785,-2.49631 20.16157,-4.54869 9.94847,-4.22752 20.11509,-8.28792 29.38592,-13.89858 15.12911,-8.253 45.2842,-29.57436 -16.19948,12.8631 3.90469,-2.86926 3.34081,-6.13605 2.43194,-10.33668 -1.92058,-5.12107 -3.66233,-10.25959 -4.8722,-15.59911 -1.12306,-5.31617 -1.32453,-10.74065 -2.82792,-15.97022 -1.51841,-4.48458 -2.0127,-9.21274 -3.24497,-13.76563 l 35.43137,-23.09553 0,0 c 1.35111,4.50651 1.7728,9.21687 3.28186,13.69036 1.63515,5.33695 2.08962,10.78117 2.93819,16.28549 1.08929,5.34178 2.68065,10.5119 4.93037,15.48971 1.21555,4.97294 2.86152,9.73002 -0.20346,14.42616 -17.26254,12.20796 -33.63672,24.82413 -52.11102,34.84973 -9.67423,5.088 -19.77834,9.47219 -30.03568,13.22728 -7.06989,2.04366 -14.42454,4.27456 -21.86185,3.57867 34.44965,-31.47777 19.73396,-25.58259 47.94333,-31.96498 9.02294,-1.95602 18.06833,-3.82237 27.11328,-5.66925 19.90588,-4.36497 36.00735,-18.79817 -19.07355,20.04565 2.37899,2.4913 2.18458,1.79644 0.10217,1.4454 -2.59678,-0.43778 -5.26646,-0.4155 -7.81066,-1.17661 -6.78277,-2.04051 -13.08095,-5.42264 -19.34801,-8.66956 -8.33102,-4.85694 -16.44116,-9.80771 -22.60574,-17.43242 -7.07065,-7.48212 -14.10462,-14.91424 -19.37233,-23.85218 -4.64752,-6.93493 -9.728576,-13.59658 -13.211496,-21.22641 -2.97703,-6.2678 -6.30002,-12.36525 -9.37563,-18.58281 -2.12722,-4.36197 -4.48373,-8.66841 -6.00664,-13.28238 -1.97627,-5.22414 -3.99094,-10.36029 -4.86642,-15.92414 -1.11211,-6.00968 -0.5158,-12.16891 0.89012,-18.10037 1.66289,-5.88037 3.37589,-11.72181 4.55131,-17.72632 1.96779,-5.84576 4.25713,-11.57404 5.86986,-17.53772 1.30985,-5.69333 3.56948,-11.10931 4.58351,-16.87335 1.34163,-5.1262 3.02169,-10.17054 4.03236,-15.361316 1.38268,-5.54942 3.6588,-10.7703 5.908936,-16.01325 2.7026,-4.54213 5.84611,-8.84491 9.30117,-12.85889 22.58622,-16.49176 72.90278,-51.19061 5.73073,-4.36486 -1.19229,0.83115 2.29596,-1.78444 3.48348,-2.62244 11.98386,-8.45671 23.94905,-16.93988 35.92356,-25.40981 -10.85057,7.65749 -21.68195,15.34228 -32.55174,22.9725 -0.55818,0.39182 1.05944,-0.86053 1.61505,-1.25602 11.94933,-8.50568 23.90955,-16.99621 35.89817,-25.44641 1.79374,-1.26431 3.82209,-1.99845 5.74497,-3.02891 4.50359,-2.12617 9.40858,-3.18097 14.37345,-3.46884 6.05018,-0.62529 12.10328,-1.34458 18.03062,-2.75337 8.51581,-2.08288 16.82942,-4.88164 25.36559,-6.88675 8.73285,-2.2032 17.50767,-4.37185 26.42719,-5.6711 7.51443,-1.2566298 14.89329,-3.1970298 22.45501,-4.1368198 8.91141,-0.76037 17.82636,-1.50952 26.71624,-2.49373 L 255.32716,26.051414 Z"
       inkscape:connector-curvature="0"
       sodipodi:nodetypes="ccccccccccccccccccccscccccccccccccccccccccccccccccccccccccccsscsssccccccccc" />
    <path
       style="fill:#5d9a00;fill-opacity:1;fill-rule:nonzero;stroke:none;stroke-width:1px;stroke-linecap:butt;stroke-linejoin:miter;stroke-opacity:1"
       id="path3338"
       d="m 222.99044,286.74814 c 7.27042,3.59842 15.32937,5.08909 23.30828,6.12794 6.38723,0.70945 12.82028,0.71631 19.23783,0.71775 5.72428,-0.0197 11.44852,-0.0471 17.17282,-0.0611 5.70438,-0.0119 11.40878,-0.0128 17.11318,-0.0137 5.66177,0.20953 10.97973,-1.8107 16.29874,-3.37939 8.60257,-3.45366 17.09354,-7.21676 25.49236,-11.16507 15.34029,-7.71472 56.88366,-31.931 -7.27054,4.98578 8.27437,-5.24149 16.75418,-10.12481 24.70864,-15.85103 5.27725,-3.90896 10.67004,-7.71143 15.5243,-12.14645 4.6407,-4.20068 9.12138,-8.52531 13.15589,-13.31562 5.3996,-6.45218 9.9333,-13.49774 14.49277,-20.54394 5.45802,-8.5219 9.95657,-17.65492 13.84513,-26.98718 3.25648,-8.19887 4.66826,-16.84739 5.30917,-25.59218 0.16544,-6.89494 -1.49632,-13.43985 -3.80402,-19.86299 -2.59183,-6.16086 -5.40213,-12.21322 -7.86257,-18.42684 -3.08127,-6.38421 -5.73739,-12.98395 -8.89336,-19.32585 -2.25737,-5.34598 -5.09121,-10.44366 -7.88816,-15.52565 -2.84259,-5.662786 -6.0789,-11.140676 -9.6078,-16.402786 -2.98817,-4.77885 -6.36244,-9.36391 -10.27653,-13.42682 -4.28107,-3.94215 -8.80608,-7.73824 -13.79207,-10.77398 -4.32233,-3.282 -8.90005,-6.2458 -13.73004,-8.72435 -5.1993,-3.26034 -10.90438,-5.44763 -16.47312,-7.94062 -5.07372,-1.98853 -10.41259,-3.53383 -15.21677,-6.13033 -4.64876,-1.90571 -9.15014,-4.14069 -13.76818,-6.12731 -4.6913,-1.46043 -10.29537,-3.79407 -14.77528,-0.88953 -11.62859,-3.3555 37.34858,-26.1908798 30.83143,-15.74922 -0.91716,1.46946 -1.04322,2.26935 -1.55933,3.92873 -1.24276,5.90498 -1.12872,11.99139 -1.15769,17.99644 -0.51108,6.50286 -1.69205,12.91412 -2.23908,19.41851 -0.69511,5.68654 -0.44183,11.217 0.60426,16.81637 0.65226,3.77983 1.18629,7.57672 1.83044,11.35765 -31.28725,20.539866 -41.85398,31.545906 -38.93224,7.50973 0.70661,-5.58894 0.92768,-11.2197 1.06777,-16.84613 -0.2114,-5.75425 0.25627,-11.3706 1.23801,-17.0276 0.57417,-5.40609 1.70732,-10.66614 3.27164,-15.86484 8.69326,-16.9932 29.33574,-26.96159 48.08714,-29.38179 5.74439,-0.34886 11.58852,-0.91122 17.27236,0.13924 5.82619,1.02642 11.59968,1.8673 17.34133,3.27919 5.4835,1.61094 11.29951,1.09485 16.7907,2.46414 4.77203,1.22438 9.72365,2.46257 14.63686,1.62714 5.53429,-1.08737 11.14783,-1.58549 16.77171,-1.88498 3.226,-0.37558 6.40884,0.4092 9.58263,0.87747 l -34.42776,24.37271 0,0 c -3.06508,-0.30273 -6.11755,-0.54838 -9.19451,-0.16808 -5.63378,0.45911 -11.2073,1.35518 -16.83285,1.86698 -5.18324,-0.22458 -10.22764,-1.22515 -15.25999,-2.46167 -5.63366,-0.72728 -11.32615,-1.11373 -16.82759,-2.65088 -5.63158,-1.27636 -11.37794,-1.94796 -17.07351,-2.87934 -5.50701,-0.24984 -11.08719,-0.0967 -16.50558,0.99044 -13.61803,3.9989 -33.74823,19.16386 29.3183,-18.19933 2.27223,-1.34617 -7.08576,3.49379 -5.19748,4.22017 -2.43326,4.5893 -3.10959,10.00284 -3.77199,15.09065 -0.89415,5.50312 -1.99014,10.84908 -1.50998,16.47711 -0.10078,5.73107 -0.25424,11.46737 -0.84242,17.1731 -2.23686,20.75771 -1.69349,10.72938 -37.7746,29.217916 0.25511,0.10946 0.58783,0.54183 0.76532,0.32838 0.55658,-0.66935 -1.2324,-8.551876 -1.19584,-9.700766 -1.13101,-5.96193 -1.76747,-11.80673 -0.95749,-17.88629 0.45422,-6.4204 1.15791,-12.79499 2.3439,-19.1256 0.0201,-6.25601 -0.0526,-12.54172 0.59358,-18.76976 3.35426,-20.37626 22.71273,-20.91391 42.48615,-32.4974598 5.67492,-0.30862 11.21372,1.21099 16.41321,3.41923 4.64129,2.0964698 9.36536,4.0079198 13.95268,6.2183998 4.93709,2.15721 9.96725,4.07299 14.97705,6.04863 5.72724,2.41376 11.30253,5.12963 16.70372,8.21363 4.82129,2.71273 9.49672,5.66005 13.91166,9.0021 5.09527,3.45405 9.88268,7.37146 14.33831,11.61577 4.03433,4.27845 7.45022,9.10047 10.53645,14.1005 3.61282,5.34791 6.95051,10.90992 9.86644,16.66755 2.8784,5.12628 5.71491,10.31236 7.98654,15.73825 3.08061,6.482506 5.69107,13.192916 8.94183,19.605436 2.63147,6.20924 5.25491,12.40553 7.93148,18.59522 2.52067,6.969 4.56208,13.92828 4.57717,21.43136 -0.59972,9.15555 -1.79076,18.23288 -5.04378,26.88367 -3.55439,9.60789 -8.2326,18.75551 -13.24421,27.68278 -4.7188,6.97189 -8.84397,14.32991 -14.28015,20.80138 -3.72027,5.18394 -8.11256,9.57658 -12.66191,13.99469 -5.16079,4.28031 -9.99828,8.98817 -15.73128,12.57363 -7.83882,6.0455 -16.35629,10.92544 -24.61905,16.32772 -21.31116,12.29174 -42.38989,25.14142 -64.49333,36.00768 -8.64494,3.91643 -17.25923,8.03374 -26.27343,11.03055 -5.50967,1.69279 -11.26351,2.56726 -17.03832,2.38981 -5.70279,0.002 -11.4056,0.006 -17.10838,0.0231 -5.72719,0.0176 -11.45455,0.0552 -17.18172,0.0154 -6.49511,-0.092 -13.00571,-0.29292 -19.43243,-1.32477 -8.33439,-1.45138 -16.60939,-3.4662 -24.31997,-7.03565 l 35.41715,-23.30323 z"
       inkscape:connector-curvature="0"
       sodipodi:nodetypes="ccccccccccccccccccccccccccsccccccccccccccccccccccccscccccscccccccccccccccccccccccccccccccc" />
    <text
       xml:space="preserve"
       style="font-style:normal;font-variant:normal;font-weight:normal;font-stretch:normal;font-size:40px;line-height:125%;font-family:Terminal;-inkscape-font-specification:Terminal;letter-spacing:0px;word-spacing:0px;fill:#000000;fill-opacity:1;stroke:none;stroke-width:1px;stroke-linecap:butt;stroke-linejoin:miter;stroke-opacity:1"
       x="108.57143"
       y="352.36221"
       id="text4140"
       sodipodi:linespacing="125%"><tspan
         sodipodi:role="line"
         id="tspan4142"
         x="108.57143"
         y="352.36221"></tspan></text>
    <flowRoot
       xml:space="preserve"
       id="flowRoot4148"
       style="font-style:normal;font-weight:normal;font-size:40px;line-height:125%;font-family:sans-serif;letter-spacing:0px;word-spacing:0px;fill:#000000;fill-opacity:1;stroke:none;stroke-width:1px;stroke-linecap:butt;stroke-linejoin:miter;stroke-opacity:1"><flowRegion
         id="flowRegion4150"><rect
           id="rect4152"
           width="6.0609155"
           height="49.497475"
           x="142.4315"
           y="108.87973" /></flowRegion><flowPara
         id="flowPara4154"></flowPara></flowRoot>    <text
       xml:space="preserve"
       style="font-style:normal;font-variant:normal;font-weight:normal;font-stretch:normal;font-size:117.65156555px;line-height:125%;font-family:'TeX Gyre Adventor';-inkscape-font-specification:'TeX Gyre Adventor';letter-spacing:0px;word-spacing:0px;fill:#000000;fill-opacity:1;stroke:none;stroke-width:1px;stroke-linecap:butt;stroke-linejoin:miter;stroke-opacity:1"
       x="9.4901104"
       y="196.47319"
       id="text4156"
       sodipodi:linespacing="125%"><tspan
         sodipodi:role="line"
         id="tspan4158"
         x="9.4901104"
         y="196.47319">TradeOff</tspan></text>
  </g>
</svg>
